<svg width="141" height="32" viewBox="0 0 141 32" fill="none" xmlns="http://www.w3.org/2000/svg">
<path d="M9.43054 11.4017L8.3387 8.78131H3.09787L2.02163 11.4017H0.571045L5.03199 0.483329H6.311L10.9123 11.4017H9.43054ZM5.70269 2.37065L3.6126 7.53349H7.82397L5.70269 2.37065Z" fill="#2F97F4"/>
<path d="M21.2109 11.4017L18.7153 7.12795H16.2197V11.4017H14.8627V0.483329H18.9961C20.0255 0.483329 20.873 0.800482 21.5385 1.43479C22.2144 2.0587 22.5523 2.85418 22.5523 3.82124C22.5523 4.58033 22.334 5.24583 21.8972 5.81775C21.4605 6.37926 20.8782 6.76401 20.1503 6.97198L22.7551 11.4017H21.2109ZM16.2197 1.77794V5.83334H18.9337C19.5888 5.83334 20.1243 5.64617 20.5402 5.27183C20.9562 4.88708 21.1641 4.39836 21.1641 3.80564C21.1641 3.21293 20.9562 2.7294 20.5402 2.35505C20.1243 1.97031 19.5888 1.77794 18.9337 1.77794H16.2197Z" fill="#2F97F4"/>
<path d="M31.9352 11.5733C30.313 11.5733 28.9716 11.043 27.911 9.98234C26.8608 8.92169 26.3356 7.57509 26.3356 5.94253C26.3356 4.30997 26.8608 2.96337 27.911 1.90272C28.9716 0.842076 30.313 0.311754 31.9352 0.311754C32.7671 0.311754 33.5366 0.472931 34.2437 0.795284C34.9612 1.10724 35.5643 1.55437 36.053 2.13669C36.5521 2.719 36.9005 3.4001 37.098 4.17999H35.7099C35.4187 3.3897 34.9404 2.77099 34.2749 2.32386C33.6094 1.87672 32.8295 1.65316 31.9352 1.65316C30.7082 1.65316 29.6995 2.0587 28.9093 2.86978C28.1294 3.67046 27.7394 4.69991 27.7394 5.95813C27.7394 7.20594 28.1294 8.23019 28.9093 9.03088C29.6995 9.83156 30.7082 10.2319 31.9352 10.2319C32.8503 10.2319 33.6458 9.99793 34.3217 9.53C34.9976 9.05167 35.4759 8.39137 35.7566 7.54909H37.1604C36.8485 8.78651 36.2194 9.76917 35.2731 10.4971C34.3373 11.2146 33.2246 11.5733 31.9352 11.5733Z" fill="#2F97F4"/>
<path d="M48.0574 0.483329V1.76234H44.7351V11.4017H43.3625V1.76234H40.0402V0.483329H48.0574Z" fill="#2F97F4"/>
<path d="M52.0607 11.4017V0.483329H53.4177V11.4017H52.0607Z" fill="#2F97F4"/>
<path d="M63.4517 11.5733C61.8295 11.5733 60.4881 11.043 59.4275 9.98234C58.3772 8.92169 57.8521 7.57509 57.8521 5.94253C57.8521 4.30997 58.3772 2.96337 59.4275 1.90272C60.4881 0.842076 61.8295 0.311754 63.4517 0.311754C64.2836 0.311754 65.0531 0.472931 65.7602 0.795284C66.4776 1.10724 67.0808 1.55437 67.5695 2.13669C68.0686 2.719 68.417 3.4001 68.6145 4.17999H67.2263C66.9352 3.3897 66.4568 2.77099 65.7914 2.32386C65.1258 1.87672 64.346 1.65316 63.4517 1.65316C62.2247 1.65316 61.216 2.0587 60.4257 2.86978C59.6459 3.67046 59.2559 4.69991 59.2559 5.95813C59.2559 7.20594 59.6459 8.23019 60.4257 9.03088C61.216 9.83156 62.2247 10.2319 63.4517 10.2319C64.3668 10.2319 65.1622 9.99793 65.8381 9.53C66.514 9.05167 66.9924 8.39137 67.2731 7.54909H68.6769C68.365 8.78651 67.7359 9.76917 66.7896 10.4971C65.8537 11.2146 64.7411 11.5733 63.4517 11.5733Z" fill="#2F97F4"/>
<path d="M8.82223 20.4559H10.1792V31.3743H8.82223V26.4143H3.16026V31.3743H1.80326V20.4559H3.16026V25.1041H8.82223V20.4559Z" fill="#2F97F4"/>
<path d="M16.7071 30.0641H21.6984V31.3743H15.3501V20.4559H21.5268V21.7506H16.7071V25.1353H21.1213V26.3987H16.7071V30.0641Z" fill="#2F97F4"/>
<path d="M33.7824 31.3743L32.6906 28.7539H27.4498L26.3735 31.3743H24.9229L29.3839 20.4559H30.6629L35.2642 31.3743H33.7824ZM30.0546 22.3433L27.9645 27.5061H32.1759L30.0546 22.3433Z" fill="#2F97F4"/>
<path d="M45.6464 20.4559H47.1438L42.7921 31.3743H41.5286L37.1145 20.4559H38.6275L42.1682 29.3154L45.6464 20.4559Z" fill="#2F97F4"/>
<path d="M59.5072 20.4559L55.483 27.0226V31.3743H54.0792V27.0226L50.0706 20.4559H51.568L54.7811 25.728L58.0098 20.4559H59.5072Z" fill="#2F97F4"/>
<path d="M64.9539 30.0953H69.758V31.3743H63.597V20.4559H64.9539V30.0953Z" fill="#2F97F4"/>
<path d="M73.7623 31.3743V20.4559H75.1193V31.3743H73.7623Z" fill="#2F97F4"/>
<path d="M86.4322 21.7506H81.6593V25.3536H86.0267V26.6326H81.6593V31.3743H80.3023V20.4559H86.4322V21.7506Z" fill="#2F97F4"/>
<path d="M97.4978 20.4559V21.735H94.1755V31.3743H92.8029V21.735H89.4806V20.4559H97.4978Z" fill="#2F97F4"/>
<path d="M108.606 30.0953H113.41V31.3743H107.249V20.4559H108.606V30.0953Z" fill="#2F97F4"/>
<path d="M122.83 20.4559V21.735H119.508V31.3743H118.135V21.735H114.813V20.4559H122.83Z" fill="#2F97F4"/>
<path d="M130.468 20.4559C132.069 20.4559 133.39 20.9707 134.43 22.0001C135.48 23.0296 136.005 24.3346 136.005 25.9151C136.005 27.4957 135.48 28.8007 134.43 29.8302C133.39 30.8596 132.069 31.3743 130.468 31.3743H126.833V20.4559H130.468ZM130.421 30.0953C131.648 30.0953 132.651 29.7002 133.431 28.9099C134.211 28.1196 134.601 27.1214 134.601 25.9151C134.601 25.1145 134.424 24.397 134.071 23.7627C133.717 23.1283 133.223 22.6344 132.589 22.2809C131.955 21.9169 131.232 21.735 130.421 21.735H128.19V30.0953H130.421Z" fill="#2F97F4"/>
<path d="M139.471 31.3743V29.721H141V31.3743H139.471Z" fill="#2F97F4"/>
</svg>
