<svg width="13" height="15" viewBox="0 0 13 15" fill="none" xmlns="http://www.w3.org/2000/svg">
<path d="M10.5071 10.6736C9.84364 11.3371 8.4563 12.7244 7.50161 13.6791C6.94833 14.2324 6.05228 14.2327 5.499 13.6794C4.56099 12.7413 3.20046 11.3808 2.49323 10.6736C0.280252 8.46066 0.280252 4.8727 2.49323 2.65973C4.7062 0.446756 8.29416 0.446756 10.5071 2.65973C12.72 4.8727 12.72 8.46066 10.5071 10.6736Z" stroke="white" stroke-linecap="round" stroke-linejoin="round"/>
<path d="M8.62516 6.66667C8.62516 7.84031 7.6738 8.79167 6.50016 8.79167C5.32652 8.79167 4.37516 7.84031 4.37516 6.66667C4.37516 5.49307 5.32652 4.54167 6.50016 4.54167C7.6738 4.54167 8.62516 5.49307 8.62516 6.66667Z" stroke="white" stroke-linecap="round" stroke-linejoin="round"/>
</svg>
