<svg width="73" height="40" viewBox="0 0 73 40" fill="none" xmlns="http://www.w3.org/2000/svg">
<path d="M60.808 38.6865C61.885 38.8462 62.9619 39.0699 64.0709 39.1444C68.0801 39.4427 68.7412 39.0699 69.4343 35.1611C70.1487 31.1244 70.5752 27.0346 71.1297 22.9553C71.7481 23.2216 72.1107 23.8713 72.0147 24.5316C71.7908 29.0582 70.9697 33.5315 69.5836 37.8344C69.445 38.6226 68.8585 39.2616 68.0694 39.464C65.8729 40.0072 63.5697 39.9539 61.4158 39.2829C60.8933 39.0592 60.3922 38.7823 59.9123 38.4841C60.5948 38.1539 61.2452 37.7705 61.8743 37.3338C62.2155 37.0463 62.6954 36.4711 62.5994 36.1835C61.821 33.7765 60.968 31.4014 60.051 29.0049C59.9123 28.6322 59.4005 28.4085 59.0167 28.1209C58.7928 28.4831 58.6008 28.8665 58.4302 29.2606C58.0037 30.6132 57.7798 32.0298 57.2253 33.3504C54.9221 39.1338 52.8855 39.677 47.0849 38.8995C46.5518 38.8249 46.0719 38.303 45.5708 37.9835C46.0186 37.6214 46.4238 37.0782 46.925 36.9504C48.1725 36.6948 49.0789 35.6084 49.1215 34.341C49.3455 33.0416 49.4841 31.7422 49.5374 30.4215C49.4627 29.1221 49.3241 27.8334 49.1109 26.5553H41.0711C41.0711 27.4925 41.0711 28.27 41.0711 29.0369C41.167 30.8049 40.7618 32.5623 39.8982 34.1173C39.1304 35.4912 38.5226 36.9397 37.7336 38.2924C37.4457 38.793 36.9765 39.1657 36.4221 39.3255C33.8097 39.7622 31.1973 40.1563 28.6275 38.8036C28.073 38.5054 27.316 38.6758 26.6655 38.4735C26.239 38.2604 25.8552 37.9835 25.5246 37.6427C25.8338 37.3125 26.0897 36.8652 26.4629 36.6841C27.22 36.3859 27.9984 36.1303 28.7874 35.9386C27.4759 32.8179 26.2284 29.7612 24.9382 26.747C24.6289 26.0227 24.2877 25.3198 23.9145 24.6275C23.424 23.7541 23.5413 22.6571 24.2131 21.9116C26.175 26.5872 28.3716 31.1564 29.118 36.2687L26.1324 37.1528L26.1857 37.5149C27.0067 38.09 28.0624 38.2178 28.99 37.8451C29.5658 37.5788 30.163 37.3658 30.7707 37.1954C31.3359 37.0569 31.5598 36.8226 31.4958 36.1942C31.2399 33.1694 30.5042 30.2085 29.3099 27.4286C28.4356 25.3091 27.7958 23.1044 27.4013 20.8465C30.1096 25.9695 32.2209 31.2842 32.0503 37.2167C31.1439 37.4936 30.2589 37.7492 29.3739 38.0368C29.2779 38.0368 29.2246 38.1965 28.9367 38.5161C29.8111 38.7717 30.7068 38.9634 31.6131 39.0592C32.9993 39.0486 34.3748 38.9634 35.7503 38.8143C36.5607 38.7397 37.2431 38.1965 37.4883 37.4297C38.1388 35.8108 39.0025 34.2558 39.6103 32.6049C39.9088 31.6783 40.0688 30.7197 40.0901 29.7505C40.2074 28.1103 40.2287 26.4914 40.282 24.8192C40.282 24.2547 40.5379 23.9139 41.167 23.9245C42.9584 23.9032 44.7391 23.9672 46.5198 24.1376L43.8114 25.0535C44.7498 25.5222 48.8656 25.4689 51.6486 24.9683C54.2717 24.5636 56.7668 23.5624 58.942 22.05L59.134 22.3376L57.4386 23.6796C58.1956 24.7447 58.942 25.8417 59.7524 26.9068C61.5544 29.4097 62.674 32.328 63.0153 35.3847C63.2818 37.1315 63.1752 37.2273 61.5544 37.8877C61.2879 37.9942 61.0319 38.1433 60.7654 38.2711L60.808 38.6865ZM56.4363 24.3293C54.9435 24.8299 53.5786 25.3304 52.1818 25.7139C50.4331 26.1932 50.3371 26.1612 50.5184 28.0251C50.7316 30.56 50.3691 33.1161 49.4627 35.4912C49.2388 36.2155 48.663 36.7693 47.9273 36.961C47.2875 37.1847 46.6691 37.4297 46.0613 37.7066L46.1253 38.0474C46.5305 38.1965 46.9463 38.303 47.3728 38.3563C48.5671 38.3989 49.7613 38.3563 50.9555 38.3989C52.6936 38.5587 54.3463 37.5681 55.0074 35.9492C55.9244 33.8404 56.6069 31.6357 57.3426 29.4523C57.9824 27.6097 57.3746 25.9482 56.4682 24.308L56.4363 24.3293Z" fill="#2F97F4"/>
<path d="M3.37783 12.688L2.10895 12.9969V13.2419L5.5424 13.7744C4.23086 14.6584 1.67178 13.6998 0.893388 12.3472C0.0296958 10.8348 0.520189 10.0999 1.66112 9.08807C4.60407 6.5319 7.83491 4.3485 11.3003 2.55918C13.4542 1.3876 15.7681 1.90948 18.0286 2.1012C20.5984 2.30356 23.1681 2.62308 25.7485 2.75089C26.5696 2.75089 27.3799 2.60178 28.1477 2.31421C30.4722 1.52606 32.978 1.46215 35.3344 2.13315C37.4777 2.80414 39.7809 2.72959 41.8708 1.90948C47.2235 -0.199364 53.0988 -0.57214 58.6755 0.844408C66.3527 2.80414 70.5752 7.53307 71.5775 15.404C71.8761 17.7258 71.8974 20.0796 72.036 22.4228C72.036 22.6358 72.0147 22.8595 71.9934 23.0725L71.6842 23.2216C71.3749 22.6891 70.8631 22.1778 70.7991 21.6133C70.2127 16.5329 68.3254 11.6869 65.3078 7.55437C65.2544 7.47981 65.2331 7.37331 65.0838 7.01118C67.1418 8.82181 68.7305 11.0904 69.7329 13.6359C69.4556 11.2289 68.5066 8.94962 66.9925 7.05379C64.3801 3.79466 60.7974 2.33551 56.8521 1.55801C51.5207 0.524887 46.0186 0.950915 40.9111 2.77219C40.7725 2.82544 40.6339 2.88935 40.5059 2.9639C41.8175 3.7201 43.3529 3.86922 47.1596 3.80531C46.1146 3.99703 45.0803 4.23134 44.0247 4.3911C40.6979 4.85974 37.531 3.96507 34.4494 2.91065C31.8797 2.01599 29.0647 2.1651 26.6122 3.31538C25.9618 3.56035 25.258 3.64555 24.565 3.58165C21.3021 3.31538 18.0819 2.9639 14.8298 2.70829C14.19 2.66568 13.5502 2.75089 12.9424 2.95325C8.93319 4.12484 5.28649 6.27628 2.33288 9.21589C1.78907 9.92948 1.41587 10.7602 1.24526 11.6549C1.11731 12.1022 1.37322 12.6028 2.08763 12.5176C2.52481 12.4857 2.96198 12.4857 3.39916 12.5176V12.688H3.37783Z" fill="#2F97F4"/>
<path d="M24.373 18.301C23.52 17.8217 22.7096 17.2891 21.8886 16.7566L21.0889 16.3732C20.5664 16.1282 19.9693 16.043 19.4361 15.8406L18.839 15.6489C18.6364 16.3945 18.7963 16.5223 19.5641 16.8525C20.0119 17.0335 20.4491 17.2359 20.8756 17.4596C21.9099 18.056 22.7416 18.7696 22.7203 20.1435C22.7949 20.9849 22.9655 21.8157 23.2214 22.6252H23.5733C23.7866 21.9648 23.9572 21.2938 24.0851 20.6122C24.1491 20.1329 23.9465 19.6962 24.5969 19.366C24.9701 19.2489 25.0128 18.6631 24.373 18.301Z" fill="#2F97F4"/>
<path d="M14.4246 15.2655L9.85019 14.243C10.8205 13.5614 13.8168 14.1898 14.4246 15.2655Z" fill="#2F97F4"/>
<path d="M14.6058 6.88337C15.6721 4.79583 15.5335 5.37097 14.2006 3.94377L14.4246 3.75206C14.7764 4.14614 15.3949 4.51891 15.4269 4.94494C15.3842 5.66919 15.2456 6.37214 15.0004 7.05379L14.6058 6.88337Z" fill="#2F97F4"/>
<path d="M70.9911 21.9116C71.3429 22.8169 71.4496 23.7967 71.311 24.7553C71.2683 24.9257 71.3643 25.1068 71.5349 25.16C71.7055 25.2026 71.8867 25.1068 71.9401 24.9364C72.1 23.8606 71.9934 22.7636 71.6095 21.7411C71.5669 21.5707 71.3856 21.4642 71.215 21.5175C71.0444 21.5601 70.9378 21.7305 70.9911 21.9116Z" fill="#2F97F4"/>
<path d="M70.7885 21.8796C70.9058 22.8382 70.9484 23.818 70.9271 24.7873C70.9271 24.9683 71.0764 25.1174 71.2576 25.1174C71.4389 25.1174 71.5882 24.9683 71.5882 24.7873C71.6095 23.818 71.5562 22.8488 71.4496 21.8903C71.4496 21.7092 71.3003 21.5707 71.119 21.5601C70.9378 21.5601 70.7885 21.7092 70.7885 21.8796Z" fill="#2F97F4"/>
<path d="M71.5455 21.6772V21.4216C71.5562 21.379 71.5562 21.3364 71.5455 21.2938C71.5349 21.2512 71.5029 21.2193 71.4709 21.1873C71.4389 21.1554 71.4069 21.1341 71.3643 21.1128C71.3216 21.1021 71.279 21.1021 71.2363 21.1128H71.151C71.0977 21.1234 71.0444 21.1554 71.0124 21.198L70.9591 21.2619C70.9271 21.3151 70.9164 21.3684 70.9164 21.4216V21.6772C70.9058 21.7198 70.9058 21.7624 70.9164 21.8051C70.9271 21.8477 70.9591 21.8796 70.9911 21.9116C71.0231 21.9435 71.055 21.9648 71.0977 21.9755C71.1404 21.9861 71.183 21.9861 71.2257 21.9755H71.311C71.3643 21.9542 71.4176 21.9329 71.4496 21.8903L71.5029 21.8264C71.5242 21.7944 71.5455 21.7305 71.5455 21.6772Z" fill="#2F97F4"/>
<path d="M24.309 23.4772C24.1064 22.8382 23.9465 22.1778 23.8505 21.5175C23.7972 21.3471 23.6266 21.2512 23.456 21.2938C23.2854 21.3364 23.1788 21.5175 23.2321 21.6879C23.3281 22.3482 23.488 23.0086 23.6906 23.6476C23.7332 23.8287 23.9252 23.9352 24.1064 23.8926C24.2877 23.85 24.3943 23.6583 24.3517 23.4772H24.309Z" fill="#2F97F4"/>
<path d="M23.2321 21.4642C23.1788 21.6985 23.2001 21.9435 23.2854 22.1672C23.3814 22.4121 23.5307 22.6145 23.7439 22.7743C23.8505 22.8382 23.9785 22.8382 24.0745 22.7743C24.1704 22.7104 24.2344 22.6039 24.2344 22.4974C24.2664 21.9755 24.2131 21.4536 24.0745 20.953C24.0211 20.7826 23.8505 20.6867 23.6799 20.7293C23.5093 20.7719 23.4027 20.953 23.456 21.1234C23.488 21.2406 23.5093 21.3577 23.5307 21.4749C23.5307 21.5388 23.5307 21.592 23.5307 21.6559V21.7092C23.5307 21.7092 23.5307 21.7731 23.5307 21.7944C23.552 22.0287 23.552 22.2737 23.5307 22.508L24.0211 22.2311L24.0425 22.1672L23.9998 22.1246C23.9998 22.1246 23.9358 22.0287 23.9358 22.0181C23.9358 22.0074 23.9358 21.9861 23.9358 21.9755C23.9358 21.9329 23.9358 21.9009 23.9358 21.8583C23.9358 21.837 23.9358 21.8157 23.9358 21.7944C23.9358 21.8477 23.9358 21.7305 23.9358 21.7944C23.9358 21.7411 23.9358 21.7198 23.9358 21.6772C23.9358 21.6346 23.9358 21.624 23.9358 21.6133V21.6559C23.9358 21.6559 23.9358 21.6559 23.9358 21.6133C23.9785 21.4429 23.8825 21.2619 23.7119 21.2193C23.5413 21.1767 23.36 21.2725 23.3174 21.4429L23.2321 21.4642Z" fill="#2F97F4"/>
<path d="M23.4773 21.9222C23.4134 22.2417 23.3814 22.5719 23.4027 22.9127C23.4027 22.9979 23.4347 23.0831 23.4987 23.147C23.5626 23.2109 23.6479 23.2429 23.7332 23.2429C23.9145 23.2429 24.0531 23.0938 24.0638 22.9127C24.0425 22.6997 24.0425 22.476 24.0638 22.263V22.3589C24.0638 22.263 24.0638 22.1672 24.1171 22.082C24.1491 22.0074 24.1491 21.9116 24.1171 21.837C24.0745 21.7625 23.9998 21.7092 23.9252 21.6879C23.7546 21.6453 23.5733 21.7411 23.52 21.9116L23.4773 21.9222Z" fill="#2F97F4"/>
<path d="M23.3494 22.5826C23.2854 23.1364 23.4347 23.6796 23.7652 24.1269C23.8079 24.2015 23.8825 24.2547 23.9572 24.276C24.0425 24.2973 24.1278 24.2867 24.2024 24.2334C24.3517 24.1376 24.405 23.9458 24.3197 23.7861C24.2451 23.6902 24.1811 23.5837 24.1278 23.4772C24.1278 23.4559 24.1278 23.4346 24.1278 23.4133C24.1064 23.3601 24.0851 23.2962 24.0745 23.2429L24.0318 23.0618C24.0318 23.0618 24.0318 22.9979 24.0318 22.966C24.0211 22.8488 24.0211 22.7317 24.0318 22.6039C24.0318 22.5187 23.9998 22.4334 23.9358 22.3802C23.8719 22.3163 23.7972 22.2843 23.7119 22.2843C23.5306 22.2843 23.392 22.4334 23.3814 22.6145L23.3494 22.5826Z" fill="#2F97F4"/>
<path d="M23.9998 23.0299C23.9678 22.4548 23.8825 21.8903 23.7652 21.3364C23.7119 21.1554 23.5306 21.0489 23.3494 21.1021C23.1681 21.1554 23.0615 21.3364 23.1148 21.5175C23.1788 21.7838 23.2214 22.0394 23.2534 22.3056V22.3482C23.2534 22.3802 23.2534 22.4228 23.2534 22.4547V22.6465C23.2534 22.7849 23.2534 22.9127 23.2534 23.0512C23.2534 23.2323 23.4027 23.3707 23.584 23.3814C23.7652 23.3814 23.9145 23.2323 23.9145 23.0512L23.9998 23.0299Z" fill="#2F97F4"/>
<path d="M3.76169 14.1685C5.14787 14.1685 6.53404 14.2111 7.92021 14.2643C9.30638 14.3495 10.6819 14.52 12.0467 14.7756C13.3263 14.9566 14.5952 15.2335 15.8321 15.6063C17.005 16.0324 18.2205 16.3306 19.4468 16.4903C19.8626 16.5223 19.8626 15.8726 19.4468 15.8406C18.1779 15.6489 16.9303 15.3294 15.7254 14.8927C14.4779 14.5306 13.1983 14.275 11.9081 14.1046C10.5859 13.8596 9.26373 13.6998 7.92021 13.6146C6.53404 13.5614 5.14787 13.5507 3.76169 13.5188C3.58042 13.5188 3.43115 13.6679 3.43115 13.849C3.43115 14.03 3.58042 14.1791 3.76169 14.1791V14.1685Z" fill="#2F97F4"/>
<path d="M14.4246 15.3294C15.139 15.5637 15.864 15.7554 16.6104 15.9045C16.973 15.9685 17.3249 16.0324 17.6874 16.075C18.0606 16.1069 18.4231 16.1815 18.775 16.2986L18.6577 15.8513L18.5618 16.0217C18.4871 16.1815 18.5618 16.3838 18.7217 16.4584C18.8603 16.5223 19.0309 16.4797 19.1162 16.3519L19.2122 16.1815C19.2975 16.0217 19.2442 15.83 19.0949 15.7341C18.3698 15.4998 17.6128 15.3507 16.845 15.2868C16.0773 15.1377 15.3202 14.946 14.5845 14.701C14.1793 14.5732 14.0087 15.2016 14.4032 15.3507V15.3294H14.4246Z" fill="#2F97F4"/>
<path d="M23.2001 22.6465L23.5626 23.2962C23.6053 23.3707 23.6799 23.424 23.7546 23.4453C23.8292 23.4772 23.9252 23.4772 23.9998 23.4453C24.0745 23.4027 24.1278 23.3281 24.1491 23.2536C24.1704 23.1683 24.1598 23.0725 24.1171 22.9979L23.7652 22.3482C23.7013 22.1778 23.4987 22.0926 23.3281 22.1672C23.3174 22.1672 23.3174 22.1672 23.3067 22.1778C23.1468 22.2737 23.1041 22.476 23.1894 22.6252V22.6465H23.2001Z" fill="#2F97F4"/>
<path d="M1.14929 11.378C1.30923 11.378 1.47984 11.3567 1.62912 11.3141C1.82105 11.2502 1.981 11.1224 2.08763 10.9626C2.27956 10.6644 2.38618 10.3342 2.41817 9.98274C2.46082 9.79103 2.41818 9.59931 2.30088 9.43955C2.18359 9.32239 2.01299 9.30109 1.87437 9.37565C1.76774 9.43955 1.6931 9.55671 1.68243 9.68452V9.76972C1.65044 9.83363 1.61846 9.89753 1.5758 9.95078V9.98274L1.43719 10.1212H1.4052L1.30923 10.1851H1.25592C1.18128 10.2171 1.09598 10.2384 1.02134 10.249H0.594826C0.509523 10.249 0.552175 10.249 0.701455 10.3449L0.744102 10.5046C0.744102 10.5046 0.690788 10.6431 0.744102 10.5792L0.776089 10.5153L0.829404 10.4301C0.829404 10.4301 0.904049 10.3236 0.861398 10.3768L0.882718 10.4194L1.07465 10.2277L1.17062 10.1638L1.34123 10.036L1.43719 9.99339H1.4905C1.55448 9.97209 1.62912 9.95079 1.70376 9.92949C1.73575 9.91883 1.76774 9.91883 1.79973 9.92949C1.75708 9.92949 1.75708 9.92949 1.79973 9.92949H1.88503L1.79973 9.27979C1.55448 9.33304 1.30924 9.4076 1.07465 9.4928C0.808083 9.59931 0.584159 9.78037 0.424216 10.0147C0.232285 10.2064 0.104333 10.4407 0.0403556 10.707C0.0296927 11.0052 0.21096 11.2715 0.498858 11.3567C0.680126 11.4099 0.861398 11.3034 0.914712 11.1224C0.968026 10.9413 0.861396 10.7602 0.680128 10.707C0.733442 10.707 0.754766 10.7602 0.712115 10.707C0.712115 10.7496 0.669463 10.6537 0.712115 10.707C0.712115 10.7815 0.712115 10.6644 0.712115 10.707C0.712115 10.6963 0.712115 10.675 0.712115 10.6644C0.712115 10.6644 0.744103 10.5898 0.712115 10.6218V10.6005C0.712115 10.6005 0.712115 10.6005 0.712115 10.5472L0.797417 10.4194L0.882718 10.3023L0.925372 10.2384L1.02134 10.1531L1.08532 10.1105L1.14929 10.0786H1.19194C1.14929 10.0786 1.2346 10.0786 1.2346 10.0786H1.28791C1.47984 10.0147 1.6931 9.97209 1.89569 9.91883C2.05563 9.87623 2.1516 9.71647 2.11961 9.55671C2.09829 9.39695 1.95967 9.27979 1.79973 9.27979C1.13863 9.32239 0.541512 9.65257 0.168311 10.1958C0.00836829 10.3555 -0.0449473 10.5898 0.0403556 10.8028C0.146984 11.0052 0.424219 11.0265 0.626813 11.0372C0.978688 11.0585 1.33056 10.952 1.61846 10.7389C1.97033 10.5259 2.23691 10.1745 2.33287 9.76972L2.18359 9.96144L2.00232 9.97209L1.84238 9.92949C1.79972 9.89753 1.75708 9.85493 1.74641 9.80167C1.74641 9.73777 1.74641 9.74842 1.74641 9.80167C1.74641 9.84428 1.74641 9.88688 1.74641 9.92949C1.74641 9.92949 1.74641 9.97209 1.74641 9.99339V10.0999C1.74641 10.1744 1.70376 10.2597 1.68243 10.3342C1.66111 10.4088 1.68243 10.3981 1.68243 10.4194C1.68243 10.462 1.68243 10.4407 1.68243 10.4194C1.68243 10.4407 1.68243 10.462 1.68243 10.4833C1.68243 10.5472 1.61846 10.5898 1.58647 10.6537C1.62912 10.5898 1.58647 10.6537 1.54382 10.6857H1.50117C1.50117 10.6857 1.37321 10.6857 1.45852 10.6857H1.24526C1.06399 10.6857 0.914712 10.8348 0.914712 11.0159C0.914712 11.1969 1.06399 11.3354 1.24526 11.346L1.14929 11.378Z" fill="#2F97F4"/>
<path d="M6.42741 7.16029L7.31243 6.83012C7.39773 6.80882 7.46171 6.75557 7.50436 6.68101C7.54701 6.60646 7.55767 6.5106 7.53635 6.42539C7.51502 6.34018 7.46171 6.27628 7.38707 6.23368C7.30176 6.20173 7.21646 6.20173 7.13116 6.23368L6.24614 6.5106C6.16084 6.5319 6.09686 6.58515 6.05421 6.65971C6.01156 6.73426 5.99023 6.81947 6.01156 6.90467C6.03289 6.98988 6.0862 7.05379 6.16084 7.09639C6.23548 7.13899 6.33144 7.14964 6.41675 7.12834V7.16029H6.42741Z" fill="#2F97F4"/>
</svg>
