<svg width="17" height="17" viewBox="0 0 17 17" fill="none" xmlns="http://www.w3.org/2000/svg">
<path d="M0 14.4989L0.337417 14.8657C0.523878 15.0684 2.20244 16.8501 3.69614 16.9878C3.78378 16.9959 3.87519 17 3.96809 17C5.97067 16.9998 9.17532 15.0891 12.1322 12.1322C13.619 10.6455 14.8678 9.06871 15.7437 7.57239C16.3749 6.4942 17.1031 4.94644 16.9879 3.69612C16.8502 2.20243 15.0685 0.523875 14.8658 0.337415L14.499 0L9.94298 4.55595L11.4729 6.08591L6.08595 11.4729L4.55602 9.94292L0 14.4989ZM1.45397 14.5145L4.55598 11.4125L6.08591 12.9425L12.9425 6.08594L11.4126 4.55599L14.5153 1.4533C15.0748 2.04333 15.8843 3.04484 15.9531 3.79151C16.0232 4.55273 15.6304 5.70904 14.8469 7.04744C14.0152 8.46829 12.8224 9.97251 11.3974 11.3974C8.71067 14.0841 5.65556 15.9607 3.96785 15.9608C3.90688 15.9608 3.84758 15.9582 3.79154 15.953C3.05106 15.8848 2.03839 15.0657 1.45397 14.5145Z" fill="white"/>
</svg>
