<svg width="21" height="21" viewBox="0 0 21 21" fill="none" xmlns="http://www.w3.org/2000/svg">
<path d="M0 17.9104L0.416809 18.3635C0.647144 18.6139 2.72067 20.8149 4.56582 20.985C4.67408 20.9949 4.787 21 4.90176 21C7.37553 20.9998 11.3342 18.6395 14.9869 14.9869C16.8235 13.1503 18.3661 11.2025 19.4482 9.35413C20.2278 8.02224 21.1274 6.1103 20.985 4.56579C20.815 2.72065 18.614 0.64714 18.3636 0.416807L17.9105 0L12.2825 5.62794L14.1725 7.51789L7.51793 14.1724L5.62802 12.2824L0 17.9104ZM1.79608 17.9297L5.62798 14.0978L7.51789 15.9878L15.9878 7.51793L14.0979 5.62799L17.9306 1.79525C18.6218 2.52412 19.6218 3.76128 19.7068 4.68363C19.7934 5.62396 19.3082 7.05234 18.3403 8.70567C17.3129 10.4608 15.8394 12.319 14.0792 14.0792C10.7602 17.398 6.98628 19.7161 4.90146 19.7163C4.82615 19.7163 4.7529 19.7131 4.68366 19.7067C3.76896 19.6224 2.51802 18.6106 1.79608 17.9297Z" fill="white" fill-opacity="0.7"/>
</svg>
