<svg width="49" height="12" viewBox="0 0 49 12" fill="none" xmlns="http://www.w3.org/2000/svg">
<path d="M13.5771 6.63483V1.35413H15.4873V6.56873C15.4873 7.79401 16.2043 8.63627 17.5708 8.63627C18.9373 8.63627 19.6397 7.79316 19.6397 6.56873V1.35413H21.5636V6.62212C21.5636 8.80829 20.2628 10.2962 17.5708 10.2962C14.8771 10.2962 13.5771 8.79473 13.5771 6.63483Z" fill="white"/>
<path d="M26.1025 8.89979L27.1234 7.47793C27.7473 8.12361 28.7152 8.66253 29.9357 8.66253C30.971 8.66253 31.4746 8.18886 31.4746 7.68807C31.4746 6.13403 26.3808 7.20084 26.3808 3.89532C26.3808 2.43364 27.6542 1.22192 29.7368 1.22192C31.1434 1.22192 32.3102 1.64306 33.1859 2.4472L32.1378 3.81652C31.4226 3.15812 30.4666 2.85562 29.5644 2.85562C28.7553 2.85562 28.3046 3.21066 28.3046 3.73771C28.3046 5.1333 33.3848 4.19867 33.3848 7.47793C33.3848 9.08451 32.2308 10.2962 29.8435 10.2962C28.1459 10.2962 26.9253 9.72934 26.1025 8.89979Z" fill="white"/>
<path d="M37.8044 5.71714C37.8044 3.04798 39.7701 1.13635 42.4587 1.13635C45.1601 1.13635 47.1258 3.04798 47.1258 5.71714C47.1258 8.38545 45.1601 10.2971 42.4587 10.2971C39.7701 10.2971 37.8044 8.38545 37.8044 5.71714ZM45.1729 5.71714C45.1729 4.05802 44.1035 2.80987 42.4587 2.80987C40.814 2.80987 39.7573 4.05802 39.7573 5.71714C39.7573 7.36355 40.814 8.62441 42.4587 8.62441C44.1035 8.62441 45.1729 7.36355 45.1729 5.71714Z" fill="white"/>
<path d="M7.0476 6.79244C8.0027 6.56874 8.9851 5.73918 8.9851 4.18513C8.9851 2.55228 7.8576 1.35413 6.01313 1.35413H1.87354V2.99969H3.75726H3.89724H5.73488C6.4911 2.99969 7.06126 3.44709 7.06126 4.18513C7.06126 4.92233 6.49025 5.37058 5.73488 5.37058H3.89724H3.75726H1.87439V10.1378H3.75812V7.01699H5.13827L6.87519 10.1386H9.03802L7.0476 6.79244Z" fill="white"/>
</svg>
