<svg width="26" height="3" viewBox="0 0 26 3" fill="none" xmlns="http://www.w3.org/2000/svg">
<path d="M23.5621 1.1095C23.0438 1.5875 22.5966 2 21.6649 2C20.7333 2 20.2856 1.5875 19.7678 1.1095C19.204 0.589501 18.5653 0 17.3294 0C16.0944 0 15.4561 0.589501 14.8924 1.1095C14.375 1.5875 13.9282 2 12.997 2C12.0657 2 11.6185 1.5875 11.1007 1.1095C10.5374 0.589501 9.89863 0 8.6632 0C7.42777 0 6.78947 0.589501 6.22613 1.11C5.70873 1.5875 5.26197 2 4.33117 2C3.40037 2 2.9536 1.5875 2.4362 1.1095C1.87287 0.589501 1.235 0 0 0V1C0.930367 1 1.37713 1.4125 1.89453 1.89C2.45787 2.4105 3.09617 3 4.33117 3C5.56617 3 6.20447 2.4105 6.76823 1.8905C7.2852 1.4125 7.73197 1 8.6632 1C9.59443 1 10.0416 1.4125 10.5595 1.8905C11.1228 2.4105 11.7615 3 12.997 3C14.2324 3 14.8707 2.4105 15.434 1.89C15.9514 1.4125 16.3982 1 17.3294 1C18.2611 1 18.7087 1.4125 19.2266 1.8905C19.7899 2.4105 20.4291 3 21.6649 3C22.9008 3 23.5395 2.4105 24.1033 1.8905C24.6211 1.4125 25.0683 1 26 1V0C24.7641 0 24.1254 0.589501 23.5621 1.1095Z" fill="#D4D7D9"/>
</svg>
