<svg width="23" height="27" viewBox="0 0 23 27" fill="none" xmlns="http://www.w3.org/2000/svg">
<path d="M7.23071 3.08088H3.48965L5.67264 0.866422L4.81806 0L1.17611 3.69363L4.82289 7.39216L5.67748 6.52574L3.48965 4.30637H7.23071V3.08088Z" fill="#A4ABAF"/>
<path d="M19.3568 0L18.5023 0.866422L20.6865 3.08088H16.914V4.30637H20.6865L18.4974 6.52574L19.352 7.39216L23 3.69363L19.3568 0Z" fill="#A4ABAF"/>
<path d="M21.4999 15.1581C21.4516 15.1091 21.3996 15.0662 21.344 15.0331C20.5608 14.5331 19.6675 14.2806 18.7742 14.2806C17.5377 14.2806 16.3023 14.7586 15.3595 15.7145L14.5049 16.5821V4.92157C14.5049 3.57353 13.4171 2.47059 12.0875 2.47059C10.7578 2.47059 9.66996 3.57353 9.66996 4.92157V10.3137C9.22877 9.76471 8.56396 9.40686 7.81091 9.40686C7.28752 9.40686 6.80523 9.58088 6.40997 9.86887L1.20391 12.924C0.484707 13.348 0 14.1336 0 15.0355V19.0662C0 23.4485 3.50294 27 7.82542 27C9.91896 27 11.8155 26.1618 13.2188 24.8039L13.22 24.815L13.3542 24.6789C13.3566 24.6765 13.3591 24.674 13.3603 24.6728L21.4999 16.4191C21.8444 16.0711 21.8444 15.5061 21.4999 15.1581ZM12.3848 23.9167C11.1458 25.114 9.52612 25.7733 7.82542 25.7733C4.17621 25.7733 1.20875 22.7647 1.20875 19.065V15.0343C1.20875 14.6029 1.43478 14.212 1.81433 13.9877L7.11346 10.864C7.25851 10.7586 7.49785 10.6311 7.8097 10.6311C8.2932 10.6311 8.59539 10.9167 8.73318 11.087L9.80655 12.4203C9.96852 12.6213 10.2369 12.6973 10.4774 12.6103C10.7179 12.5233 10.8787 12.2929 10.8787 12.0331V4.92157C10.8787 4.24632 11.4214 3.69608 12.0875 3.69608C12.7535 3.69608 13.2962 4.24632 13.2962 4.92157V17.1728C13.2962 17.6936 13.6189 18.1311 14.0722 18.3064C14.2668 18.3811 14.4868 18.3333 14.6343 18.1838L16.2141 16.5821C16.8983 15.8885 17.8072 15.5074 18.7742 15.5074C19.3194 15.5074 19.8524 15.6299 20.3383 15.8652L12.3848 23.9167Z" fill="#A4ABAF"/>
</svg>
